<svg id="visual" viewBox="0 0 960 250" width="960" height="250" xmlns="http://www.w3.org/2000/svg" xmlns:xlink="http://www.w3.org/1999/xlink" version="1.1"><rect x="0" y="0" width="960" height="250" fill="#ffffff"></rect><path d="M0 140L20 136.3C40 132.7 80 125.3 120 132.8C160 140.3 200 162.7 240 163.8C280 165 320 145 360 143.5C400 142 440 159 480 159.2C520 159.3 560 142.7 600 140.8C640 139 680 152 720 153.8C760 155.7 800 146.3 840 148.8C880 151.3 920 165.7 940 172.8L960 180L960 251L940 251C920 251 880 251 840 251C800 251 760 251 720 251C680 251 640 251 600 251C560 251 520 251 480 251C440 251 400 251 360 251C320 251 280 251 240 251C200 251 160 251 120 251C80 251 40 251 20 251L0 251Z" fill="#ff2700" stroke-linecap="round" stroke-linejoin="miter"></path></svg>