<svg id="visual" viewBox="0 0 960 250" width="960" height="250" xmlns="http://www.w3.org/2000/svg" xmlns:xlink="http://www.w3.org/1999/xlink" version="1.1"><rect x="0" y="0" width="960" height="250" fill="#ffffff"></rect><path d="M0 182L20 183.2C40 184.3 80 186.7 120 188.8C160 191 200 193 240 197C280 201 320 207 360 206.8C400 206.7 440 200.3 480 195.2C520 190 560 186 600 184C640 182 680 182 720 183.8C760 185.7 800 189.3 840 194.5C880 199.7 920 206.3 940 209.7L960 213L960 251L940 251C920 251 880 251 840 251C800 251 760 251 720 251C680 251 640 251 600 251C560 251 520 251 480 251C440 251 400 251 360 251C320 251 280 251 240 251C200 251 160 251 120 251C80 251 40 251 20 251L0 251Z" fill="#001220" stroke-linecap="round" stroke-linejoin="miter"></path></svg>